<svg width="71" height="68" viewBox="0 0 71 68" fill="none" xmlns="http://www.w3.org/2000/svg">
<g filter="url(#filter0_f_123_1058)">
<mask id="mask0_123_1058" style="mask-type:alpha" maskUnits="userSpaceOnUse" x="0" y="0" width="71" height="68">
<path d="M44.5067 58.7646C59.0738 54.0378 66.8428 38.9921 61.8697 25.1639C56.8967 11.3358 41.0604 3.94938 26.4933 8.67609C11.9261 13.4028 4.15715 28.4486 9.13018 42.2767C14.1032 56.1049 29.9395 63.4913 44.5067 58.7646Z" fill="#FF5CEF" stroke="black" stroke-width="0.191522"/>
</mask>
<g mask="url(#mask0_123_1058)">
<g opacity="0.9">
<path fill-rule="evenodd" clip-rule="evenodd" d="M25.6484 54.9034C20.4313 52.2316 16.2204 47.7567 14.1533 42.0089C9.801 29.9067 16.6013 16.7445 29.3423 12.6104C35.3934 10.6469 41.6962 11.073 47.113 13.3582C41.3453 10.4044 34.3478 9.6545 27.6579 11.8252C14.917 15.9594 8.11665 29.1215 12.469 41.2238C14.7542 47.5782 19.6598 52.377 25.6484 54.9034Z" fill="url(#paint0_radial_123_1058)" fill-opacity="0.6"/>
<path fill-rule="evenodd" clip-rule="evenodd" d="M25.6484 54.9034C20.4313 52.2316 16.2204 47.7567 14.1533 42.0089C9.801 29.9067 16.6013 16.7445 29.3423 12.6104C35.3934 10.6469 41.6962 11.073 47.113 13.3582C41.3453 10.4044 34.3478 9.6545 27.6579 11.8252C14.917 15.9594 8.11665 29.1215 12.469 41.2238C14.7542 47.5782 19.6598 52.377 25.6484 54.9034Z" fill="url(#paint1_radial_123_1058)"/>
</g>
</g>
</g>
<g filter="url(#filter1_f_123_1058)">
<mask id="mask1_123_1058" style="mask-type:alpha" maskUnits="userSpaceOnUse" x="0" y="0" width="71" height="68">
<path d="M26.4933 8.67611C11.9262 13.4028 4.15723 28.4486 9.13026 42.2767C14.1033 56.1049 29.9396 63.4913 44.5067 58.7646C59.0739 54.0379 66.8428 38.9921 61.8698 25.1639C56.8968 11.3358 41.0605 3.9494 26.4933 8.67611Z" fill="#FF5CEF" stroke="black" stroke-width="0.191522"/>
</mask>
<g mask="url(#mask1_123_1058)">
<g opacity="0.9">
<path fill-rule="evenodd" clip-rule="evenodd" d="M45.3516 12.5372C50.5687 15.209 54.7796 19.6839 56.8467 25.4317C61.199 37.5339 54.3987 50.6961 41.6577 54.8302C35.6066 56.7937 29.3038 56.3676 23.887 54.0824C29.6547 57.0362 36.6522 57.7861 43.3421 55.6154C56.083 51.4812 62.8834 38.3191 58.531 26.2168C56.2458 19.8624 51.3402 15.0636 45.3516 12.5372Z" fill="url(#paint2_radial_123_1058)" fill-opacity="0.6"/>
<path fill-rule="evenodd" clip-rule="evenodd" d="M45.3516 12.5372C50.5687 15.209 54.7796 19.6839 56.8467 25.4317C61.199 37.5339 54.3987 50.6961 41.6577 54.8302C35.6066 56.7937 29.3038 56.3676 23.887 54.0824C29.6547 57.0362 36.6522 57.7861 43.3421 55.6154C56.083 51.4812 62.8834 38.3191 58.531 26.2168C56.2458 19.8624 51.3402 15.0636 45.3516 12.5372Z" fill="url(#paint3_radial_123_1058)"/>
</g>
</g>
</g>
<path d="M45.6281 43.9831C42.9522 45.4428 40.207 46.1849 37.3925 46.2091C33.3961 46.2035 30.1756 44.8904 27.7311 42.2696C25.4553 39.7616 24.3201 36.6923 24.3257 33.0617C24.3304 30.0222 25.1789 27.3356 26.8711 25.002C29.2966 21.6843 32.789 20.0287 37.3484 20.035C40.5005 20.0394 43.2153 20.789 45.4926 22.2838C45.4935 21.6928 45.5224 21.2425 45.5791 20.933C45.6924 20.4828 46.0868 20.2582 46.7622 20.2592L46.8766 28.2382L45.6945 28.2365C44.3225 23.6471 41.6665 21.3216 37.7264 21.2598C36.4599 21.258 35.3197 21.5098 34.3058 22.0149C31.1512 23.6148 29.5694 27.2854 29.5606 33.0268C29.5598 33.5615 29.573 34.0963 29.6003 34.631C29.9556 41.5268 32.5818 44.9781 37.4788 44.9849C41.6723 44.9626 44.4622 42.6024 45.8485 37.9043L46.9884 37.9058L46.9759 46.0113C46.6663 46.0109 46.413 45.9824 46.2161 45.9258C45.7942 45.7845 45.5982 45.1369 45.6281 43.9831Z" fill="url(#paint4_linear_123_1058)"/>
<g filter="url(#filter2_f_123_1058)">
<ellipse cx="1.89948" cy="4.40109" rx="1.89948" ry="4.40109" transform="matrix(-0.863649 -0.504094 0.543167 -0.839625 27.3015 33.6196)" fill="white" fill-opacity="0.9"/>
</g>
<g filter="url(#filter3_f_123_1058)">
<ellipse cx="1.78004" cy="4.11912" rx="1.78004" ry="4.11912" transform="matrix(-0.863649 -0.504094 0.543167 -0.839625 27.417 29.2645)" fill="white"/>
</g>
<defs>
<filter id="filter0_f_123_1058" x="4.49327" y="4.24456" width="62.0906" height="58.9873" filterUnits="userSpaceOnUse" color-interpolation-filters="sRGB">
<feFlood flood-opacity="0" result="BackgroundImageFix"/>
<feBlend mode="normal" in="SourceGraphic" in2="BackgroundImageFix" result="shape"/>
<feGaussianBlur stdDeviation="0.0475547" result="effect1_foregroundBlur_123_1058"/>
</filter>
<filter id="filter1_f_123_1058" x="4.41612" y="4.2087" width="62.0906" height="58.9873" filterUnits="userSpaceOnUse" color-interpolation-filters="sRGB">
<feFlood flood-opacity="0" result="BackgroundImageFix"/>
<feBlend mode="normal" in="SourceGraphic" in2="BackgroundImageFix" result="shape"/>
<feGaussianBlur stdDeviation="0.0475547" result="effect1_foregroundBlur_123_1058"/>
</filter>
<filter id="filter2_f_123_1058" x="20.9381" y="20.9345" width="14.2271" height="16.0645" filterUnits="userSpaceOnUse" color-interpolation-filters="sRGB">
<feFlood flood-opacity="0" result="BackgroundImageFix"/>
<feBlend mode="normal" in="SourceGraphic" in2="BackgroundImageFix" result="shape"/>
<feGaussianBlur stdDeviation="2.10702" result="effect1_foregroundBlur_123_1058"/>
</filter>
<filter id="filter3_f_123_1058" x="22.2346" y="18.1673" width="11.7648" height="13.4827" filterUnits="userSpaceOnUse" color-interpolation-filters="sRGB">
<feFlood flood-opacity="0" result="BackgroundImageFix"/>
<feBlend mode="normal" in="SourceGraphic" in2="BackgroundImageFix" result="shape"/>
<feGaussianBlur stdDeviation="1.58373" result="effect1_foregroundBlur_123_1058"/>
</filter>
<radialGradient id="paint0_radial_123_1058" cx="0" cy="0" r="1" gradientUnits="userSpaceOnUse" gradientTransform="translate(12.887 22.8234) rotate(24.9926) scale(19.4506 36.6487)">
<stop stop-color="white"/>
<stop offset="1" stop-color="white" stop-opacity="0"/>
</radialGradient>
<radialGradient id="paint1_radial_123_1058" cx="0" cy="0" r="1" gradientUnits="userSpaceOnUse" gradientTransform="translate(12.887 22.8234) rotate(24.9926) scale(19.4506 11.5447)">
<stop stop-color="white"/>
<stop offset="1" stop-color="white" stop-opacity="0"/>
</radialGradient>
<radialGradient id="paint2_radial_123_1058" cx="0" cy="0" r="1" gradientUnits="userSpaceOnUse" gradientTransform="translate(58.113 44.6172) rotate(-155.007) scale(19.4506 36.6487)">
<stop stop-color="white"/>
<stop offset="1" stop-color="white" stop-opacity="0"/>
</radialGradient>
<radialGradient id="paint3_radial_123_1058" cx="0" cy="0" r="1" gradientUnits="userSpaceOnUse" gradientTransform="translate(58.113 44.6172) rotate(-155.007) scale(19.4506 11.5447)">
<stop stop-color="white"/>
<stop offset="1" stop-color="white" stop-opacity="0"/>
</radialGradient>
<linearGradient id="paint4_linear_123_1058" x1="40.8845" y1="29.9405" x2="31.7708" y2="52.2953" gradientUnits="userSpaceOnUse">
<stop stop-color="#E6C0B1"/>
<stop offset="1" stop-color="#EEE3DF"/>
</linearGradient>
</defs>
</svg>
