<svg width="71" height="58" viewBox="0 0 71 58" fill="none" xmlns="http://www.w3.org/2000/svg">
<g filter="url(#filter0_f_72_266)">
<mask id="mask0_72_266" style="mask-type:alpha" maskUnits="userSpaceOnUse" x="0" y="-6" width="71" height="69">
<path d="M44.5066 53.5648C59.0738 48.838 66.8428 33.7923 61.8697 19.9641C56.8967 6.136 41.0604 -1.25042 26.4933 3.4763C11.9261 8.20301 4.15715 23.2488 9.13018 37.0769C14.1032 50.9051 29.9395 58.2915 44.5066 53.5648Z" fill="#FF5CEF" stroke="black" stroke-width="0.191522"/>
</mask>
<g mask="url(#mask0_72_266)">
<g opacity="0.9">
<path fillRule="evenodd" clipRule="evenodd" d="M25.648 49.7035C20.4311 47.0317 16.2203 42.5568 14.1533 36.8092C9.80092 24.7069 16.6012 11.5447 29.3422 7.41059C35.3935 5.44708 41.6965 5.87322 47.1134 8.1586C41.3455 5.20463 34.3479 4.45467 27.6579 6.62542C14.917 10.7596 8.11665 23.9218 12.469 36.024C14.7542 42.3783 19.6596 47.177 25.648 49.7035Z" fill="url(#paint0_radial_72_266)" fill-opacity="0.6"/>
<path fillRule="evenodd" clipRule="evenodd" d="M25.648 49.7035C20.4311 47.0317 16.2203 42.5568 14.1533 36.8092C9.80092 24.7069 16.6012 11.5447 29.3422 7.41059C35.3935 5.44708 41.6965 5.87322 47.1134 8.1586C41.3455 5.20463 34.3479 4.45467 27.6579 6.62542C14.917 10.7596 8.11665 23.9218 12.469 36.024C14.7542 42.3783 19.6596 47.177 25.648 49.7035Z" fill="url(#paint1_radial_72_266)"/>
</g>
</g>
</g>
<g filter="url(#filter1_f_72_266)">
<mask id="mask1_72_266" style="mask-type:alpha" maskUnits="userSpaceOnUse" x="0" y="-6" width="71" height="69">
<path d="M26.4934 3.47631C11.9262 8.20303 4.15723 23.2488 9.13026 37.0769C14.1033 50.9051 29.9396 58.2915 44.5067 53.5648C59.0739 48.8381 66.8428 33.7923 61.8698 19.9642C56.8968 6.13602 41.0605 -1.2504 26.4934 3.47631Z" fill="#FF5CEF" stroke="black" stroke-width="0.191522"/>
</mask>
<g mask="url(#mask1_72_266)">
<g opacity="0.9">
<path fillRule="evenodd" clipRule="evenodd" d="M45.3516 7.33738C50.5687 10.0092 54.7796 14.4841 56.8467 20.2319C61.199 32.3341 54.3987 45.4963 41.6577 49.6304C35.6066 51.5939 29.3038 51.1678 23.887 48.8826C29.6547 51.8364 36.6522 52.5863 43.3421 50.4156C56.083 46.2814 62.8834 33.1193 58.531 21.017C56.2458 14.6626 51.3402 9.86381 45.3516 7.33738Z" fill="url(#paint2_radial_72_266)" fill-opacity="0.6"/>
<path fillRule="evenodd" clipRule="evenodd" d="M45.3516 7.33738C50.5687 10.0092 54.7796 14.4841 56.8467 20.2319C61.199 32.3341 54.3987 45.4963 41.6577 49.6304C35.6066 51.5939 29.3038 51.1678 23.887 48.8826C29.6547 51.8364 36.6522 52.5863 43.3421 50.4156C56.083 46.2814 62.8834 33.1193 58.531 21.017C56.2458 14.6626 51.3402 9.86381 45.3516 7.33738Z" fill="url(#paint3_radial_72_266)"/>
</g>
</g>
</g>
<path d="M45.6281 38.7833C42.9522 40.2431 40.207 40.9851 37.3925 41.0093C33.3961 41.0037 30.1756 39.6906 27.7311 37.0698C25.4553 34.5618 24.3201 31.4925 24.3257 27.8619C24.3304 24.8224 25.1789 22.1358 26.8711 19.8022C29.2966 16.4845 32.789 14.8289 37.3484 14.8352C40.5005 14.8396 43.2153 15.5892 45.4926 17.084C45.4935 16.493 45.5224 16.0427 45.5791 15.7332C45.6924 15.283 46.0868 15.0584 46.7622 15.0594L46.8766 23.0384L45.6945 23.0367C44.3225 18.4473 41.6665 16.1218 37.7264 16.06C36.4599 16.0582 35.3197 16.31 34.3058 16.8151C31.1512 18.415 29.5694 22.0856 29.5606 27.827C29.5598 28.3617 29.573 28.8965 29.6003 29.4312C29.9556 36.327 32.5818 39.7783 37.4788 39.7851C41.6723 39.7628 44.4622 37.4026 45.8485 32.7045L46.9884 32.706L46.9759 40.8115C46.6663 40.8111 46.413 40.7826 46.2161 40.726C45.7942 40.5847 45.5982 39.9371 45.6281 38.7833Z" fill="url(#paint4_linear_72_266)"/>
<g filter="url(#filter2_f_72_266)">
<ellipse cx="1.89948" cy="4.40109" rx="1.89948" ry="4.40109" transform="matrix(-0.863649 -0.504094 0.543167 -0.839625 27.3013 28.4198)" fill="white" fill-opacity="0.9"/>
</g>
<g filter="url(#filter3_f_72_266)">
<ellipse cx="1.78004" cy="4.11912" rx="1.78004" ry="4.11912" transform="matrix(-0.863649 -0.504094 0.543167 -0.839625 27.4167 24.0647)" fill="white"/>
</g>
<defs>
<filter id="filter0_f_72_266" x="4.49327" y="-0.955232" width="62.0906" height="58.9874" filterUnits="userSpaceOnUse" color-interpolation-filters="sRGB">
<feFlood flood-opacity="0" result="BackgroundImageFix"/>
<feBlend mode="normal" in="SourceGraphic" in2="BackgroundImageFix" result="shape"/>
<feGaussianBlur stdDeviation="0.0475547" result="effect1_foregroundBlur_72_266"/>
</filter>
<filter id="filter1_f_72_266" x="4.41612" y="-0.991106" width="62.0906" height="58.9873" filterUnits="userSpaceOnUse" color-interpolation-filters="sRGB">
<feFlood flood-opacity="0" result="BackgroundImageFix"/>
<feBlend mode="normal" in="SourceGraphic" in2="BackgroundImageFix" result="shape"/>
<feGaussianBlur stdDeviation="0.0475547" result="effect1_foregroundBlur_72_266"/>
</filter>
<filter id="filter2_f_72_266" x="20.9378" y="15.7347" width="14.2271" height="16.0645" filterUnits="userSpaceOnUse" color-interpolation-filters="sRGB">
<feFlood flood-opacity="0" result="BackgroundImageFix"/>
<feBlend mode="normal" in="SourceGraphic" in2="BackgroundImageFix" result="shape"/>
<feGaussianBlur stdDeviation="2.10702" result="effect1_foregroundBlur_72_266"/>
</filter>
<filter id="filter3_f_72_266" x="22.2344" y="12.9675" width="11.7648" height="13.4827" filterUnits="userSpaceOnUse" color-interpolation-filters="sRGB">
<feFlood flood-opacity="0" result="BackgroundImageFix"/>
<feBlend mode="normal" in="SourceGraphic" in2="BackgroundImageFix" result="shape"/>
<feGaussianBlur stdDeviation="1.58373" result="effect1_foregroundBlur_72_266"/>
</filter>
<radialGradient id="paint0_radial_72_266" cx="0" cy="0" r="1" gradientUnits="userSpaceOnUse" gradientTransform="translate(12.8871 17.6235) rotate(24.9923) scale(19.4505 36.6486)">
<stop stop-color="white"/>
<stop offset="1" stop-color="white" stop-opacity="0"/>
</radialGradient>
<radialGradient id="paint1_radial_72_266" cx="0" cy="0" r="1" gradientUnits="userSpaceOnUse" gradientTransform="translate(12.8871 17.6235) rotate(24.9923) scale(19.4505 11.5447)">
<stop stop-color="white"/>
<stop offset="1" stop-color="white" stop-opacity="0"/>
</radialGradient>
<radialGradient id="paint2_radial_72_266" cx="0" cy="0" r="1" gradientUnits="userSpaceOnUse" gradientTransform="translate(58.113 39.4174) rotate(-155.007) scale(19.4506 36.6487)">
<stop stop-color="white"/>
<stop offset="1" stop-color="white" stop-opacity="0"/>
</radialGradient>
<radialGradient id="paint3_radial_72_266" cx="0" cy="0" r="1" gradientUnits="userSpaceOnUse" gradientTransform="translate(58.113 39.4174) rotate(-155.007) scale(19.4506 11.5448)">
<stop stop-color="white"/>
<stop offset="1" stop-color="white" stop-opacity="0"/>
</radialGradient>
<linearGradient id="paint4_linear_72_266" x1="40.8845" y1="24.7408" x2="31.7708" y2="47.0955" gradientUnits="userSpaceOnUse">
<stop stop-color="#E6C0B1"/>
<stop offset="1" stop-color="#EEE3DF"/>
</linearGradient>
</defs>
</svg>
